<svg width="59" height="64" viewBox="0 0 59 64" fill="none" xmlns="http://www.w3.org/2000/svg">
<path d="M40.3268 12C40.3268 5.37249 35.4793 0 29.4995 0C23.5196 0 18.6721 5.37249 18.6721 12C18.6721 18.6275 23.5196 23.9999 29.4995 23.9999C35.4793 23.9999 40.3268 18.6275 40.3268 12ZM26.9719 30.1374C20.2804 25.5974 9.44175 24.3499 3.98746 24.0062C2.1547 23.8912 0.626465 25.4387 0.626465 27.3924V55.2424C0.626465 57.0336 1.93364 58.5273 3.61414 58.6236C8.53834 58.9098 18.5007 59.9586 25.3862 63.8023C26.443 64.3923 27.696 63.5886 27.696 62.3186V31.5699C27.6949 30.9862 27.4344 30.4512 26.9719 30.1374ZM55.0115 24.0062C49.5583 24.3487 38.7185 25.5974 32.0281 30.1374C31.5657 30.4512 31.3052 31.0074 31.3052 31.5912V62.3148C31.3052 63.5886 32.5616 64.3936 33.6218 63.8023C40.5062 59.9623 50.4628 58.9136 55.3859 58.6273C57.0664 58.5298 58.3736 57.0361 58.3736 55.2449V27.3924C58.3725 25.4387 56.8442 23.8912 55.0115 24.0062Z" fill="#FF830C"/>
</svg>
